<svg xmlns="http://www.w3.org/2000/svg" viewBox="0 0 120 120" fill="none" stroke="#fff" stroke-width="1.3">
  <g opacity=".9">
    <ellipse cx="60" cy="42" rx="10" ry="22"/>
    <ellipse cx="60" cy="42" rx="10" ry="22" transform="rotate(60 60 60)"/>
    <ellipse cx="60" cy="42" rx="10" ry="22" transform="rotate(120 60 60)"/>
    <ellipse cx="60" cy="78" rx="10" ry="22"/>
    <ellipse cx="60" cy="78" rx="10" ry="22" transform="rotate(60 60 60)"/>
    <ellipse cx="60" cy="78" rx="10" ry="22" transform="rotate(120 60 60)"/>
    <circle cx="60" cy="60" r="7"/>
    <circle cx="60" cy="60" r="2.5" fill="#fff" stroke="none"/>
  </g>
  <g opacity=".72">
    <path d="M18 99l84-78M30 88l-5-12m18 0-9-4m42-27 10 3m3-15 6 11"/>
    <circle cx="60" cy="60" r="31" stroke-dasharray="3 7"/>
  </g>
</svg>
